<svg xmlns="http://www.w3.org/2000/svg" id="Layer_1" viewBox="0 0 1050 350"><style>.st0{fill:#fff}.st1{fill:#273c51}.st2{fill:url(#SVGID_1_)}.st3{fill:#466284}.st4{fill:#354d6a}.st5{fill:url(#SVGID_2_)}.st6{fill:url(#SVGID_3_)}.st7{fill:url(#SVGID_4_)}.st8{fill:url(#SVGID_5_)}.st9{fill:url(#SVGID_6_)}.st10{fill:url(#SVGID_7_)}.st11{fill:url(#SVGID_8_)}.st12{fill:url(#SVGID_9_)}.st13{fill:url(#SVGID_10_)}.st14{fill:none}</style><path d="M280.6 198.7c-15.2 0-31.5 6-31.5 20.6 0 13 14.9 16.8 32.6 19.7 24 3.8 47.6 8.6 47.6 35.6-.2 26.9-25.9 35.6-48.8 35.6-21.2 0-41.5-7.7-50.7-27.8l12.3-7.2c7.7 14.2 23.8 21.1 38.6 21.1 14.6 0 33.9-4.6 33.9-22.3.2-14.9-16.6-19.2-34.6-21.9-23.1-3.6-45.6-8.9-45.6-33.2-.3-25 25.2-33.6 45.9-33.6 17.8 0 34.8 3.6 45.4 21.8l-11.3 7c-6.5-10.4-20.4-15.2-33.8-15.4zm73.2-10.6v49.2c7.2-11.1 18.5-14.9 29.3-15.1 23.8 0 35.5 15.8 35.5 39.1v46.6h-13.9v-46.4c0-16.6-8.6-26-24-26S354 247.5 354 263v44.9h-14v-120h13.9v.2zm150.6 120.1l-.3-15.4c-6.7 11.7-19.5 17.1-31.2 17.1-24.3 0-43.3-16.8-43.3-44.4 0-27.4 19.4-43.9 43.5-43.7 12.7 0 25.2 5.8 31.4 16.8l.2-15.4h13.7v84.6h-13.5l-.5.4zm-30.9-73c-16.8 0-30.3 12-30.3 30.8s13.5 31 30.3 31c40.8 0 40.8-62 .2-62l-.2.2zm56-11.6h13.4l.7 16.3c6.7-11.3 19.2-17.8 32.6-17.8 24.3.5 42.1 17.6 42.1 43.7 0 26.7-17.6 44-43 44-12 0-25.4-5.1-32-17.1v55.2h-13.7V223.6zm74.7 42.4c0-19-12.5-30.3-29.8-30.3-17.6 0-29.6 13-29.6 30.3s12.5 30.3 29.6 30.5c16.9 0 29.8-11.4 29.8-30.5zm104.7 28.3c-8.6 10.1-23.3 15.1-36.5 15.1-26.2 0-44.5-17.3-44.5-44.2 0-25.5 18.3-43.9 43.9-43.9 25.9 0 45.6 15.9 42.3 49.7h-72c1.5 15.6 14.4 25.4 30.7 25.4 9.6 0 21.2-3.8 26.9-10.6l9.4 8.6h-.2zm-8.3-34.9c-.7-16.4-12-25.4-28.6-25.4-14.7 0-27.6 8.9-30 25.2h58.6v.2zm70.6-60.7c-15.2 0-31.5 6-31.5 20.6 0 13 14.9 16.8 32.6 19.7 24 3.8 47.6 8.6 47.6 35.6-.2 26.9-25.9 35.6-48.8 35.6-21.2 0-41.5-7.7-50.7-27.8l12.3-7.2c7.7 14.2 23.8 21.1 38.6 21.1 14.6 0 33.9-4.6 33.9-22.3.2-14.9-16.6-19.2-34.6-21.9-23.1-3.6-45.6-8.9-45.6-33.2-.3-25 25.2-33.6 45.9-33.6 17.8 0 34.8 3.6 45.4 21.8l-11.3 7c-6.5-10.4-20.4-15.2-33.8-15.4zm73.2-10.6v49.2c7.2-11.1 18.5-14.9 29.3-15.1 23.8 0 35.5 15.8 35.5 39.1v46.6h-13.9v-46.4c0-16.6-8.6-26-24-26s-26.7 12.2-26.7 27.6V308h-14V187.9h13.9v.2zm76.2 119.7h14v-83.4h-14v83.4zm7.2-96.1l-11.1-12.2 11.1-12.2 11.1 12.2-11.1 12.2zm33 96.3v-.2h-.1zm13.9-90.4c0-12.7 5.8-18.3 14.9-18.3h.5l3.2-12.1c-1.3-.2-2.7-.3-4-.3-17.8 0-28.4 11.3-28.4 30.7v6.7h-16.6v12.3h16.6v71.3h13.9v-71.3h16.8v-12.3h-16.8v-6.7zm71.4 78.5c-1.1.2-2.2.3-3.3.3-10.1 0-13.4-6.3-13.4-16.3v-43.6h18v-12.2h-17.9v-25.8l-14 1.5v24.2h-17v12.2h17V280c0 18.7 8.6 29.3 26.7 29 2.2-.1 4.4-.3 6.5-.8l-2.6-12.1z" class="st0"/><path d="M216 82.1L230.5-.7l-60.6 25.3h-66.6L42.7-.8l14.6 82.9-13.7 46.2 12.9 8.1L0 186v46.6l64.6 89 60.9 20.4.1.1 47.6-24.4.1-.1v-36.1l-27-14.8 42.4-112.9h-.3l41.2-25.5z" class="st1"/><linearGradient id="SVGID_1_" x1="136.736" x2="60.32" y1="25.992" y2="247.665" gradientUnits="userSpaceOnUse"><stop offset=".135" stop-color="#2b415b"/><stop offset=".376" stop-color="#3b5676"/><stop offset=".692" stop-color="#54769e"/><stop offset=".79" stop-color="#52749b"/><stop offset=".861" stop-color="#4d6c92"/><stop offset=".924" stop-color="#436082"/><stop offset=".982" stop-color="#364f6c"/><stop offset="1" stop-color="#314863"/></linearGradient><path d="M97.7 100.3L0 186l136.1 78.3.5-161.4z" class="st2"/><path d="M83.8 153.3l52.4 140.1.4-132.3z" class="st3"/><path d="M188.7 153.8l-52.5 139.6.4-132.3z" class="st4"/><linearGradient id="SVGID_2_" x1="230.103" x2="34.047" y1="127.422" y2="14.229" gradientUnits="userSpaceOnUse"><stop offset="0" stop-color="#54769e"/><stop offset=".48" stop-color="#53749c"/><stop offset=".688" stop-color="#4f6f95"/><stop offset=".842" stop-color="#486588"/><stop offset=".909" stop-color="#435f80"/></linearGradient><path d="M230.5-.7l-52.1 27.4-41.7 9.1-42.1-9.1L42.7-.8l17.9 82.7-17 46.4 59.6 37 33.1 36v.3l.2-.2.2.2v-.3l33.1-36 59.8-37-17-46.3z" class="st5"/><linearGradient id="SVGID_3_" x1="342.528" x2="150.465" y1="63.83" y2="63.83" gradientUnits="userSpaceOnUse"><stop offset=".254" stop-color="#20344c"/><stop offset=".407" stop-color="#273d57"/><stop offset=".673" stop-color="#395373"/><stop offset="1" stop-color="#54769e"/></linearGradient><path d="M230.5-.7L216 82.1l13.6 46.2-17-46.3z" class="st6"/><linearGradient id="SVGID_4_" x1="-74.328" x2="124.234" y1="63.778" y2="63.778" gradientUnits="userSpaceOnUse"><stop offset=".254" stop-color="#54769e"/><stop offset=".413" stop-color="#4d6e93"/><stop offset=".69" stop-color="#3c5777"/><stop offset="1" stop-color="#233850"/></linearGradient><path d="M42.7-.8l14.6 82.9-13.7 46.2 17-46.4z" class="st7"/><linearGradient id="SVGID_5_" x1="138.43" x2="134.503" y1="-77.417" y2="85.563" gradientUnits="userSpaceOnUse"><stop offset=".007" stop-color="#54769e"/><stop offset=".199" stop-color="#507198"/><stop offset=".45" stop-color="#466488"/><stop offset=".732" stop-color="#354f6d"/><stop offset="1" stop-color="#21354d"/></linearGradient><path d="M42.7-.8l60.6 25.4h66.6L230.5-.7l-52.1 27.4-41.7 9.1-42.1-9.1z" class="st8"/><linearGradient id="SVGID_6_" x1="173.28" x2="12.751" y1="-23.235" y2="132.569" gradientUnits="userSpaceOnUse"><stop offset=".254" stop-color="#54769e"/><stop offset=".41" stop-color="#4d6e93"/><stop offset=".681" stop-color="#3c5777"/><stop offset="1" stop-color="#22364e"/></linearGradient><path d="M60.6 81.9l-3 8.3 62.9-58z" class="st9"/><linearGradient id="SVGID_7_" x1="114.997" x2="248.776" y1="-2.444" y2="116.847" gradientUnits="userSpaceOnUse"><stop offset=".254" stop-color="#54769e"/><stop offset=".41" stop-color="#4d6e93"/><stop offset=".681" stop-color="#3c5777"/><stop offset="1" stop-color="#22364e"/></linearGradient><path d="M212.6 82L153 32.2l62.5 57.6z" class="st10"/><linearGradient id="SVGID_8_" x1="-31.933" x2="255.118" y1="230.841" y2="333.289" gradientUnits="userSpaceOnUse"><stop offset=".266" stop-color="#54769e"/><stop offset="1" stop-color="#425e7f"/></linearGradient><path d="M0 186l146.3 80.7 18.5 46.3-39.2 14.9-61-6.3-64.6-89z" class="st11"/><path d="M121.1 252.8l-56.3 68.6-.2.2 60.9 20.4.1.1 47.6-24.4.1-.1v-36.1z" class="st0"/><linearGradient id="SVGID_9_" x1="97.761" x2="268.61" y1="-67.941" y2="84.28" gradientUnits="userSpaceOnUse"><stop offset=".461" stop-color="#54769e" stop-opacity="0"/><stop offset=".57" stop-color="#52739a" stop-opacity=".216"/><stop offset=".676" stop-color="#4a698e" stop-opacity=".427"/><stop offset=".782" stop-color="#3d597b" stop-opacity=".636"/><stop offset=".886" stop-color="#2c435f" stop-opacity=".842"/><stop offset=".966" stop-color="#1b2e45"/></linearGradient><path d="M212.6 82L230.5-.7l-52.1 27.4-25.4 5.5z" class="st12"/><path d="M136.6 201.6l-16.5-18.1 16.5-18.2 16.6 18.2z" class="st0"/><linearGradient id="SVGID_10_" x1="136.61" x2="136.61" y1="347.973" y2="-96.23" gradientUnits="userSpaceOnUse"><stop offset=".254" stop-color="#54769e"/><stop offset=".41" stop-color="#4d6e93"/><stop offset=".681" stop-color="#3c5777"/><stop offset="1" stop-color="#22364e"/></linearGradient><path d="M135 35.4l1.7.4 1.5-.3-1.6 105.5z" class="st13"/></svg>